<svg xmlns="http://www.w3.org/2000/svg" version="1.1" xmlns:xlink="http://www.w3.org/1999/xlink" xmlns:svgjs="http://svgjs.com/svgjs" viewBox="0 0 512 512" style="enable-background:new 0 0 512 512" xml:space="preserve" class=""><g><g fill="rgb(0,0,0)"><path d="m403.5 18h-295a27.531 27.531 0 0 0 -27.5 27.5v380a27.531 27.531 0 0 0 27.5 27.5h65.13a7.5 7.5 0 0 0 0-15h-65.13a12.514 12.514 0 0 1 -12.5-12.5v-380a12.514 12.514 0 0 1 12.5-12.5h295a12.514 12.514 0 0 1 12.5 12.5v380a12.514 12.514 0 0 1 -12.5 12.5h-37.261c2.191-6.437 3.261-13.87 3.261-26.4v-28.6h9a17.521 17.521 0 0 0 17.5-17.5v-227.327a7.5 7.5 0 0 0 -15 0v227.327a2.5 2.5 0 0 1 -2.5 2.5h-9v-25.79a28.554 28.554 0 0 0 -28.163-28.193c-.148 0-.3 0-.443 0a27.392 27.392 0 0 0 -13.465 3.8 28.649 28.649 0 0 0 -7.741-13.46 28.266 28.266 0 0 0 -20.167-8.123 27.529 27.529 0 0 0 -16.563 6.024 28.814 28.814 0 0 0 -7.613-8.343 27.583 27.583 0 0 0 -24.8-4.181 27.89 27.89 0 0 0 -4.784 2v-44.544a27.561 27.561 0 0 0 -1.286-8.334 77.657 77.657 0 1 0 -38.3-17.338 28.9 28.9 0 0 0 -16.665 26.172v97.677c-9.959-5.806-20.34-6.844-30.109-3a26.671 26.671 0 0 0 -15.281 15.835 27.515 27.515 0 0 0 -1.61 9.798h-9.01a2.5 2.5 0 0 1 -2.5-2.5v-295a2.5 2.5 0 0 1 2.5-2.5h245a2.5 2.5 0 0 1 2.5 2.5v37.673a7.5 7.5 0 0 0 15 0v-37.673a17.52 17.52 0 0 0 -17.5-17.5h-245a17.52 17.52 0 0 0 -17.5 17.5v295a17.521 17.521 0 0 0 17.5 17.5h13.878l57.752 85.212v18.288a7.5 7.5 0 0 0 7.5 7.5h131.3a7.5 7.5 0 0 0 7.5-7.5v-16.96a2.662 2.662 0 0 1 .222-1.033c2.858-6.661 5.311-11.406 7.5-15.507h44.348a27.532 27.532 0 0 0 27.5-27.5v-380a27.531 27.531 0 0 0 -27.5-27.5zm-210 144.218a62.5 62.5 0 1 1 62.5 62.5 62.571 62.571 0 0 1 -62.5-62.5zm153.386 281.909c-2.442 4.553-5.48 10.219-9.02 18.468a17.542 17.542 0 0 0 -1.436 6.945v9.46h-116.3v-13.09a7.5 7.5 0 0 0 -1.292-4.208l-59.918-88.408a12.5 12.5 0 0 1 -.683-10.016 11.513 11.513 0 0 1 6.662-6.95c5.562-2.191 11.487-1.409 17.61 2.328a37.436 37.436 0 0 1 8.629 7.359 7.5 7.5 0 0 0 13.372-4.665v-113.66c0-7.405 5.77-13.548 12.857-13.692a13.484 13.484 0 0 1 13.393 13.192v69.95a7.5 7.5 0 0 0 15 0 13.647 13.647 0 0 1 9.259-13.082 12.62 12.62 0 0 1 11.442 1.951 13.335 13.335 0 0 1 5.539 10.641v8.28a7.5 7.5 0 1 0 15 0c0-7.4 5.76-13.541 12.84-13.691a13.49 13.49 0 0 1 13.41 13.191v18.26a7.5 7.5 0 1 0 15 0c0-7.419 5.785-13.552 12.9-13.671a13.552 13.552 0 0 1 13.35 13.191v69.39c0 18.328-2.229 22.485-7.614 32.527z" fill="#7D87FE" data-original="#000000" class=""></path><path d="m256 211.718a51.535 51.535 0 0 0 49.818-38.429 7.5 7.5 0 1 0 -14.507-3.809 36.507 36.507 0 0 1 -70.621 0 7.5 7.5 0 0 0 -14.509 3.808 51.539 51.539 0 0 0 49.819 38.43z" fill="#7D87FE" data-original="#000000" class=""></path><path d="m276 158.371a7.5 7.5 0 0 0 7.5-7.5v-10a7.5 7.5 0 1 0 -15 0v10a7.5 7.5 0 0 0 7.5 7.5z" fill="#7D87FE" data-original="#000000" class=""></path><path d="m236 158.371a7.5 7.5 0 0 0 7.5-7.5v-10a7.5 7.5 0 1 0 -15 0v10a7.5 7.5 0 0 0 7.5 7.5z" fill="#7D87FE" data-original="#000000" class=""></path></g></g></svg>