<svg xmlns="http://www.w3.org/2000/svg" version="1.1" xmlns:xlink="http://www.w3.org/1999/xlink" viewBox="0 0 512.00015 512" style="enable-background:new 0 0 512 512" xml:space="preserve" class=""><g><path d="m511.996094 10.097656c0-.09375.003906-.183594.003906-.273437-.007812-.402344-.035156-.796875-.089844-1.195313-.011718-.082031-.03125-.160156-.042968-.242187-.054688-.339844-.128907-.671875-.214844-1.003907-.023438-.082031-.042969-.167968-.070313-.25-.113281-.390624-.253906-.773437-.417969-1.148437-.015624-.042969-.039062-.082031-.058593-.121094-.148438-.335937-.324219-.660156-.511719-.976562-.046875-.078125-.09375-.15625-.140625-.234375-.390625-.613282-.839844-1.195313-1.375-1.730469-.058594-.058594-.125-.109375-.1875-.167969-.078125-.078125-.160156-.148437-.242187-.222656-.273438-.242188-.554688-.46875-.84375-.675781-.035157-.023438-.066407-.054688-.101563-.078125-.011719-.007813-.023437-.015625-.035156-.023438-.347657-.238281-.710938-.449218-1.078125-.640625-.074219-.039062-.152344-.074219-.230469-.113281-.316406-.152344-.640625-.289062-.96875-.40625-.074219-.023438-.144531-.054688-.214844-.082031-.382812-.125-.765625-.226563-1.152343-.304688-.09375-.019531-.191407-.035156-.285157-.050781-.316406-.054688-.632812-.0976562-.957031-.1210938-.097656-.0078124-.199219-.0195312-.300781-.0234374-.390625-.0195313-.78125-.01562505-1.171875.0117187-.085938.0078125-.171875.0195313-.257813.0273437-.332031.03125-.660156.0781248-.988281.1445308-.09375.019532-.1875.035157-.28125.054688-.394531.089844-.789062.203125-1.171875.339844-.050781.019531-.101563.042968-.152344.0625-.34375.132812-.679687.28125-1.011719.453125-.046874.023437-.101562.039062-.148437.066406l-367.097656 196.054687c-4.871094 2.601563-6.710938 8.660157-4.109375 13.53125 1.800781 3.371094 5.257812 5.292969 8.828125 5.292969 1.589843 0 3.203125-.382812 4.703125-1.183593l290.335937-155.054688-299.089843 261.976562-99.058594-49.34375 46.976562-25.085937c4.871094-2.605469 6.714844-8.660156 4.109375-13.535156-2.601562-4.871094-8.660156-6.710938-13.53125-4.109375l-64.074219 34.222656c-3.300781 1.761719-5.3398432 5.21875-5.289062 8.960938.0546875 3.742187 2.191406 7.140624 5.542969 8.8125l119.167969 59.355468 58.289062 132.953125c.019531.042969.050781.085938.070312.128907.171876.375.363282.738281.578126 1.089843.027343.042969.046874.085938.074218.128907.234375.367187.496094.722656.78125 1.0625.058594.066406.117188.132812.175782.195312.242187.273438.496093.53125.769531.777344.066406.058594.128906.121094.195312.179687.292969.25.597657.492188.925781.714844.023438.015625.050782.027344.074219.042969.265625.175781.546875.320312.824219.46875.15625.082031.3125.183594.472656.257812.234375.109375.480469.191406.722656.28125 1.132813.421875 2.308594.65625 3.484376.65625h.003906c.359375 0 .722656-.027344 1.085937-.066406.109375-.011719.222657-.03125.332031-.046875.144532-.019531.292969-.03125.4375-.0625.117188-.019531.230469-.050781.34375-.078125.101563-.023438.199219-.046875.300782-.070312.347656-.089844.6875-.191407 1.019531-.316407.015625-.003906.03125-.011719.050781-.019531.316406-.121094.621094-.261719.925782-.410156.09375-.050782.1875-.101563.28125-.152344.257812-.136719.503906-.285156.746093-.445312.0625-.042969.125-.078126.1875-.121094.285157-.199219.554688-.414063.8125-.636719.085938-.074219.167969-.148437.25-.226563.226563-.207031.441407-.421874.644531-.648437.042969-.046875.085938-.085937.128907-.132813.242187-.28125.464843-.578124.675781-.878906.023438-.035156.050781-.066406.078125-.101562l54.289063-80.59375 182.695312 80.585937c2.878906 1.269531 6.191406 1.113281 8.9375-.429687 2.742188-1.539063 4.601562-4.285156 5.015625-7.402344l39.101563-294.871094c.726562-5.472656-3.121094-10.5-8.597657-11.226562-5.472656-.726563-10.5 3.121094-11.226562 8.597656l-37.355469 281.65625-220.074219-97.078125 274.507813-313.378906-8.011719 60.433593c-.726563 5.472657 3.121094 10.5 8.597656 11.226563.445313.0625.890625.089844 1.328125.089844 4.9375 0 9.234375-3.660157 9.898438-8.6875l12.363281-93.199219c.003906-.054688.003906-.105469.007813-.15625.042968-.351562.0625-.703125.066406-1.058594zm-308.394532 425.015625 2.53125-61.5625 30.015626 13.242188zm-14.378906-83.222656c-.097656.113281-.183594.234375-.273437.347656-.085938.105469-.171875.207031-.253907.316407-.179687.25-.347656.503906-.503906.761718-.035156.054688-.070312.105469-.101562.160156-.195313.335938-.367188.679688-.519532 1.027344-.015624.035156-.027343.074219-.042968.105469-.128906.3125-.242188.628906-.339844.949219-.027344.09375-.050781.1875-.078125.28125-.074219.273437-.136719.546875-.1875.824218-.019531.105469-.042969.210938-.058594.316407-.042969.308593-.078125.617187-.09375.929687-.003906.050782-.015625.105469-.015625.160156l-2.808594 68.292969-39.429687-89.933593 250.324219-219.269532zm0 0" fill="#7d87fe" data-original="#000000" class=""></path><path d="m99.425781 235.003906c1.589844 0 3.203125-.378906 4.703125-1.179687l.238282-.128907c4.871093-2.601562 6.710937-8.660156 4.109374-13.53125-2.601562-4.871093-8.660156-6.714843-13.527343-4.109374l-.238281.125c-4.875 2.601562-6.714844 8.660156-4.113282 13.53125 1.800782 3.371093 5.257813 5.292968 8.828125 5.292968zm0 0" fill="#7d87fe" data-original="#000000" class=""></path><path d="m487.175781 121.765625c-5.484375-.730469-10.5 3.128906-11.222656 8.605469l-.035156.265625c-.71875 5.476562 3.132812 10.5 8.609375 11.222656.441406.058594.882812.085937 1.316406.085937 4.941406 0 9.238281-3.660156 9.902344-8.691406l.035156-.269531c.722656-5.472656-3.128906-10.5-8.605469-11.21875zm0 0" fill="#7d87fe" data-original="#000000" class=""></path></g></svg>