<svg xmlns="http://www.w3.org/2000/svg" version="1.1" xmlns:xlink="http://www.w3.org/1999/xlink" viewBox="0 0 32 32" style="enable-background:new 0 0 512 512" xml:space="preserve" class=""><g><g id="adaptive_responsive_design_1_"><g><g><g><path d="m1.5 20c-.276 0-.5-.224-.5-.5v-16c0-.827.673-1.5 1.5-1.5h27c.827 0 1.5.673 1.5 1.5v1.5c0 .276-.224.5-.5.5s-.5-.224-.5-.5v-1.5c0-.275-.225-.5-.5-.5h-27c-.275 0-.5.225-.5.5v16c0 .276-.224.5-.5.5z" fill="#7d87fe" data-original="#000000"></path></g></g><g><g><path d="m16 31h-5.5c-.276 0-.5-.224-.5-.5s.224-.5.5-.5h1c.827 0 1.5-.673 1.5-1.5v-2.5c0-.276.224-.5.5-.5s.5.224.5.5v2.5c0 .563-.187 1.082-.501 1.5h2.501c.276 0 .5.224.5.5s-.224.5-.5.5z" fill="#7d87fe" data-original="#000000"></path></g></g><g><g><path d="m15.5 26h-13c-.827 0-1.5-.673-1.5-1.5v-3c0-.276.224-.5.5-.5h14c.276 0 .5.224.5.5s-.224.5-.5.5h-13.5v2.5c0 .275.225.5.5.5h13c.276 0 .5.224.5.5s-.224.5-.5.5z" fill="#7d87fe" data-original="#000000"></path></g></g><g><g><path d="m28.5 31h-9c-1.379 0-2.5-1.121-2.5-2.5v-20c0-1.379 1.121-2.5 2.5-2.5h9c1.379 0 2.5 1.121 2.5 2.5v20c0 1.379-1.121 2.5-2.5 2.5zm-9-24c-.827 0-1.5.673-1.5 1.5v20c0 .827.673 1.5 1.5 1.5h9c.827 0 1.5-.673 1.5-1.5v-20c0-.827-.673-1.5-1.5-1.5z" fill="#7d87fe" data-original="#000000"></path></g></g><g><g><path d="m26.5 9h-5c-.276 0-.5-.224-.5-.5s.224-.5.5-.5h5c.276 0 .5.224.5.5s-.224.5-.5.5z" fill="#7d87fe" data-original="#000000"></path></g></g><g><g><path d="m24.5 29h-1c-.276 0-.5-.224-.5-.5s.224-.5.5-.5h1c.276 0 .5.224.5.5s-.224.5-.5.5z" fill="#7d87fe" data-original="#000000"></path></g></g></g></g></g></svg>