<svg xmlns="http://www.w3.org/2000/svg" version="1.1" xmlns:xlink="http://www.w3.org/1999/xlink" viewBox="0 0 64 64" style="enable-background:new 0 0 512 512" xml:space="preserve" class=""><g><g><path d="m57 8h-50c-1.654 0-3 1.346-3 3v34c0 1.654 1.346 3 3 3h18.72l-1.5 6h-4.22c-1.324 0-1.323 2 0 2h24c1.324 0 1.323-2 0-2h-4.22l-1.5-6h18.72c1.654 0 3-1.346 3-3v-34c0-1.654-1.346-3-3-3zm-50 2h50c.552 0 1 .449 1 1v30h-52v-30c0-.551.448-1 1-1zm30.72 44h-11.44l1.5-6h8.439zm19.28-8h-50c-.552 0-1-.449-1-1v-2h52v2c0 .551-.448 1-1 1z" fill="#7d87fe" data-original="#000000" class=""></path><path d="m12 27c1.103 0 2 .897 2 2v3c0 2.206 1.794 4 4 4 1.324 0 1.323-2 0-2-1.103 0-2-.897-2-2v-3c0-1.193-.525-2.267-1.357-3 .832-.733 1.357-1.807 1.357-3v-3c0-1.103.897-2 2-2 1.324 0 1.323-2 0-2-2.206 0-4 1.794-4 4v3c0 1.103-.897 2-2 2-1.324 0-1.323 2 0 2z" fill="#7d87fe" data-original="#000000" class=""></path><path d="m48 32c0 1.103-.897 2-2 2-1.324 0-1.323 2 0 2 2.206 0 4-1.794 4-4v-3c0-1.103.897-2 2-2 1.324 0 1.323-2 0-2-1.103 0-2-.897-2-2v-3c0-2.206-1.794-4-4-4-1.324 0-1.323 2 0 2 1.103 0 2 .897 2 2v3c0 1.193.525 2.267 1.357 3-.832.733-1.357 1.807-1.357 3z" fill="#7d87fe" data-original="#000000" class=""></path><path d="m38 33c-1.103 0-2-.897-2-2 0-1.323-2-1.324-2 0 0 2.206 1.794 4 4 4 3.337 0 5.147-3.833 3.201-6.399l-4.805-6.405c-.962-1.27-.073-3.196 1.604-3.196 1.103 0 2 .897 2 2 0 1.323 2 1.324 2 0 0-2.206-1.794-4-4-4-3.337 0-5.147 3.833-3.201 6.399l4.805 6.405c.962 1.27.073 3.196-1.604 3.196z" fill="#7d87fe" data-original="#000000" class=""></path><path d="m22 19h3v15c0 1.323 2 1.324 2 0v-15h3c1.324 0 1.323-2 0-2h-8c-1.324 0-1.323 2 0 2z" fill="#7d87fe" data-original="#000000" class=""></path></g></g></svg>